Coordinates
version=1
nRows=11
nColumns=40
inDegrees=yes

Units are S.I. units (second, meters, Newtons, ...)
If the header above contains a line with 'inDegrees', this indicates whether rotational values are in degrees (yes) or radians (no).

endheader
time	pelvis_tilt	pelvis_list	pelvis_rotation	pelvis_tx	pelvis_ty	pelvis_tz	hip_flexion_r	hip_adduction_r	hip_rotation_r	knee_angle_r	knee_angle_r_beta	ankle_angle_r	subtalar_angle_r	mtp_angle_r	hip_flexion_l	hip_adduction_l	hip_rotation_l	knee_angle_l	knee_angle_l_beta	ankle_angle_l	subtalar_angle_l	mtp_angle_l	lumbar_extension	lumbar_bending	lumbar_rotation	arm_flex_r	arm_add_r	arm_rot_r	elbow_flex_r	pro_sup_r	wrist_flex_r	wrist_dev_r	arm_flex_l	arm_add_l	arm_rot_l	elbow_flex_l	pro_sup_l	wrist_flex_l	wrist_dev_l
      0.70800000	     14.16370553	     -2.17283645	     -1.72630687	      1.00568919	      0.93055574	     -0.29592791	    -29.68697376	      1.23548452	     -2.11694039	     31.78174510	      0.55469609	    -30.81187715	      0.00000000	      0.00000000	     18.50428381	     -0.14583151	      3.54300546	     31.59441523	      0.55142657	    -15.61953531	      0.00000000	      0.00000000	    -28.36226155	     -0.74178605	      3.17280351	      3.63604867	    -16.34030034	     12.50303624	     46.27013709	     75.04657524	      0.00000000	      0.00000000	     -0.22140443	    -22.35554746	     18.52090299	     45.52718784	     79.88355890	      0.00000000	      0.00000000
      0.71200000	     14.35477298	     -2.02069171	     -1.50039061	      1.01266290	      0.93142396	     -0.29587325	    -29.65179926	      1.24676597	     -1.84119986	     32.43857469	      0.56615993	    -31.64697385	      0.00000000	      0.00000000	     18.05943286	      0.11035029	      3.80388656	     32.00385351	      0.55857262	    -15.33720735	      0.00000000	      0.00000000	    -28.47684544	     -0.90202551	      2.82243516	      3.48117702	    -16.04856905	     12.31512951	     45.97725834	     75.05123619	      0.00000000	      0.00000000	     -0.20628020	    -22.49707942	     18.50005830	     45.42848651	     79.83326149	      0.00000000	      0.00000000
      0.71600000	     14.57576588	     -1.69704874	     -1.16790802	      1.02011195	      0.93211153	     -0.29654289	    -29.65161715	      0.93941069	     -2.42752440	     33.02853220	      0.57645663	    -33.18470215	      0.00000000	      0.00000000	     17.55157467	      0.60624191	      4.01261781	     32.49948506	      0.56722302	    -14.36633505	      0.00000000	      0.00000000	    -28.55076781	     -1.13507039	      2.39951960	      3.18809297	    -15.86752838	     12.05138554	     45.62080559	     75.15066611	      0.00000000	      0.00000000	     -0.41944391	    -22.70627313	     18.62536026	     45.89085247	     79.64702348	      0.00000000	      0.00000000
      0.72000000	     14.83340783	     -1.53844323	     -0.93990423	      1.02695676	      0.93310020	     -0.29677661	    -29.63119721	      0.91303251	     -2.24173502	     33.72094937	      0.58854159	    -33.97140956	      0.00000000	      0.00000000	     17.00528453	      0.83904849	      4.10732432	     32.85429456	      0.57341561	    -14.08700648	      0.00000000	      0.00000000	    -28.75417205	     -1.26218602	      2.03414340	      3.01941158	    -15.72285367	     12.02290079	     45.48718448	     75.16466145	      0.00000000	      0.00000000	     -0.39272629	    -22.80498293	     18.65823074	     45.81993711	     79.59540270	      0.00000000	      0.00000000
      0.72400000	     15.14799004	     -1.24831323	     -0.75749946	      1.03421489	      0.93411480	     -0.29764083	    -29.60555409	      0.52577349	     -2.67895567	     34.49970912	      0.60213352	    -35.19803470	      0.00000000	      0.00000000	     16.29273595	      1.26981834	      4.18367563	     33.16573545	      0.57885128	    -13.21912804	      0.00000000	      0.00000000	    -28.94580885	     -1.47878173	      1.73024162	      2.82565933	    -15.68329648	     12.02538274	     45.13019002	     75.20066378	      0.00000000	      0.00000000	     -0.41014746	    -22.87620864	     18.81821479	     45.93344412	     79.49029015	      0.00000000	      0.00000000
      0.72800000	     15.46233798	     -0.99474002	     -0.52072408	      1.04104749	      0.93528628	     -0.29822881	    -29.57224229	      0.31487121	     -2.78921253	     35.26394629	      0.61547197	    -36.04294040	      0.00000000	      0.00000000	     15.59130162	      1.64011171	      4.30718824	     33.38755674	      0.58272279	    -12.76380663	      0.00000000	      0.00000000	    -29.20331476	     -1.66387544	      1.35266707	      2.66080381	    -15.58942545	     12.01053899	     44.90428733	     75.20353591	      0.00000000	      0.00000000	     -0.37596383	    -22.99594146	     18.96710140	     46.01185496	     79.39951127	      0.00000000	      0.00000000
      0.73200000	     15.78714789	     -0.68396717	     -0.27958847	      1.04801939	      0.93642482	     -0.29883621	    -29.54571208	      0.03867191	     -3.00308063	     36.04692639	      0.62913755	    -36.79598724	      0.00000000	      0.00000000	     14.76881395	      2.06732070	      4.42041572	     33.43448586	      0.58354186	    -12.26115968	      0.00000000	      0.00000000	    -29.45750367	     -1.89583369	      0.92407895	      2.47257549	    -15.50258234	     12.06256530	     44.74682099	     75.17319062	      0.00000000	      0.00000000	     -0.38490550	    -23.12789640	     19.07620179	     46.11981542	     79.15361201	      0.00000000	      0.00000000
      0.73600000	     16.10470621	     -0.61584610	     -0.02284329	      1.05466385	      0.93766237	     -0.29916971	    -29.48875049	      0.12458613	     -2.81278165	     36.78806725	      0.64207290	    -37.36185343	      0.00000000	      0.00000000	     14.05090029	      2.17414198	      4.46852030	     33.61012359	      0.58660732	    -11.96884251	      0.00000000	      0.00000000	    -29.74466211	     -1.88871053	      0.58964296	      2.35430178	    -15.38091981	     12.01690620	     44.54315930	     75.16112039	      0.00000000	      0.00000000	     -0.30772767	    -23.19253392	     19.11621007	     46.07329832	     79.12819848	      0.00000000	      0.00000000
      0.74000000	     16.46952010	     -0.52315669	      0.20375803	      1.06118011	      0.93901810	     -0.29969793	    -29.42152025	      0.10991678	     -2.77739467	     37.59282653	      0.65611860	    -37.88217948	      0.00000000	      0.00000000	     13.22011552	      2.29832685	      4.46549686	     33.68795315	      0.58796570	    -11.49510097	      0.00000000	      0.00000000	    -30.08307159	     -1.90636205	      0.27827867	      2.24465672	    -15.31531120	     12.01097841	     44.34798461	     75.14706916	      0.00000000	      0.00000000	     -0.22854609	    -23.26859461	     19.25392798	     46.16819379	     79.14512936	      0.00000000	      0.00000000
      0.74400000	     16.88155664	     -0.37652386	      0.29740484	      1.06767439	      0.94040211	     -0.30039662	    -29.35561596	     -0.10048758	     -2.84240961	     38.43501268	      0.67081752	    -38.23064336	      0.00000000	      0.00000000	     12.25370755	      2.50706845	      4.58718680	     33.66252231	      0.58752185	    -10.89473354	      0.00000000	      0.00000000	    -30.47349271	     -1.99067319	      0.10817288	      2.14914804	    -15.34825225	     12.03028803	     44.10991109	     75.14355054	      0.00000000	      0.00000000	     -0.11607670	    -23.29934844	     19.30649292	     46.26600967	     79.10185342	      0.00000000	      0.00000000
      0.74800000	     17.16434503	     -0.19151113	      0.62700730	      1.07469950	      0.94162592	     -0.30123467	    -29.26389820	     -0.22018451	     -3.16951139	     39.14670259	      0.68323885	    -38.37406132	      0.00000000	      0.00000000	     11.40825878	      2.75052038	      4.63964003	     33.61327500	      0.58666232	    -10.32749777	      0.00000000	      0.00000000	    -30.66100884	     -2.02675051	     -0.28560729	      1.91630185	    -15.33677256	     12.10027782	     43.94528398	     75.10869852	      0.00000000	      0.00000000	     -0.08135747	    -23.36491276	     19.51792203	     46.36499035	     79.12003644	      0.00000000	      0.00000000
